<svg id="visual" viewBox="0 0 900 600" width="900" height="600" xmlns="http://www.w3.org/2000/svg" xmlns:xlink="http://www.w3.org/1999/xlink" version="1.1"><rect x="0" y="0" width="900" height="600" fill="#481479"></rect><path d="M0 368L21.5 372.2C43 376.3 86 384.7 128.8 390.2C171.7 395.7 214.3 398.3 257.2 403.7C300 409 343 417 385.8 422.3C428.7 427.7 471.3 430.3 514.2 431.5C557 432.7 600 432.3 642.8 430.5C685.7 428.7 728.3 425.3 771.2 426.3C814 427.3 857 432.7 878.5 435.3L900 438L900 601L878.5 601C857 601 814 601 771.2 601C728.3 601 685.7 601 642.8 601C600 601 557 601 514.2 601C471.3 601 428.7 601 385.8 601C343 601 300 601 257.2 601C214.3 601 171.7 601 128.8 601C86 601 43 601 21.5 601L0 601Z" fill="#632c82"></path><path d="M0 466L21.5 468C43 470 86 474 128.8 463C171.7 452 214.3 426 257.2 420.2C300 414.3 343 428.7 385.8 441.3C428.7 454 471.3 465 514.2 465.8C557 466.7 600 457.3 642.8 455.2C685.7 453 728.3 458 771.2 453.8C814 449.7 857 436.3 878.5 429.7L900 423L900 601L878.5 601C857 601 814 601 771.2 601C728.3 601 685.7 601 642.8 601C600 601 557 601 514.2 601C471.3 601 428.7 601 385.8 601C343 601 300 601 257.2 601C214.3 601 171.7 601 128.8 601C86 601 43 601 21.5 601L0 601Z" fill="#702b94"></path><path d="M0 456L21.5 464.8C43 473.7 86 491.3 128.8 500.2C171.7 509 214.3 509 257.2 502.8C300 496.7 343 484.3 385.8 481.2C428.7 478 471.3 484 514.2 487C557 490 600 490 642.8 490.5C685.7 491 728.3 492 771.2 486.2C814 480.3 857 467.7 878.5 461.3L900 455L900 601L878.5 601C857 601 814 601 771.2 601C728.3 601 685.7 601 642.8 601C600 601 557 601 514.2 601C471.3 601 428.7 601 385.8 601C343 601 300 601 257.2 601C214.3 601 171.7 601 128.8 601C86 601 43 601 21.5 601L0 601Z" fill="#7e28a7"></path><path d="M0 536L21.5 532C43 528 86 520 128.8 521C171.7 522 214.3 532 257.2 536.8C300 541.7 343 541.3 385.8 539.3C428.7 537.3 471.3 533.7 514.2 526.2C557 518.7 600 507.3 642.8 499.7C685.7 492 728.3 488 771.2 493.7C814 499.3 857 514.7 878.5 522.3L900 530L900 601L878.5 601C857 601 814 601 771.2 601C728.3 601 685.7 601 642.8 601C600 601 557 601 514.2 601C471.3 601 428.7 601 385.8 601C343 601 300 601 257.2 601C214.3 601 171.7 601 128.8 601C86 601 43 601 21.5 601L0 601Z" fill="#8d23b9"></path><path d="M0 537L21.5 543C43 549 86 561 128.8 559.2C171.7 557.3 214.3 541.7 257.2 539C300 536.3 343 546.7 385.8 546.5C428.7 546.3 471.3 535.7 514.2 532.3C557 529 600 533 642.8 540.3C685.7 547.7 728.3 558.3 771.2 564.2C814 570 857 571 878.5 571.5L900 572L900 601L878.5 601C857 601 814 601 771.2 601C728.3 601 685.7 601 642.8 601C600 601 557 601 514.2 601C471.3 601 428.7 601 385.8 601C343 601 300 601 257.2 601C214.3 601 171.7 601 128.8 601C86 601 43 601 21.5 601L0 601Z" fill="#9c1acc"></path></svg>