<?xml version="1.0" encoding="UTF-8" standalone="no" ?>
<!DOCTYPE svg PUBLIC "-//W3C//DTD SVG 1.1//EN" "http://www.w3.org/Graphics/SVG/1.1/DTD/svg11.dtd">
<svg xmlns="http://www.w3.org/2000/svg" xmlns:xlink="http://www.w3.org/1999/xlink" version="1.1" width="750" height="250" viewBox="0 0 750 250" xml:space="preserve">
<desc>Created with Fabric.js 4.6.0</desc>
<defs>
</defs>
<g transform="matrix(1 0 0 1 368.04 130.83)" id="rKKt6aAXZU_O8OSvcRCoC"  >
<g style="" vector-effect="non-scaling-stroke"   >
		<g transform="matrix(1 0 0 1 3.33 -0.57)" id="2FmvqeudKjAc_HRVmGc68"  >
<path style="stroke: none; stroke-width: 1; stroke-dasharray: none; stroke-linecap: butt; stroke-dashoffset: 0; stroke-linejoin: miter; stroke-miterlimit: 4; fill: rgb(255,255,255); fill-rule: nonzero; opacity: 1;" vector-effect="non-scaling-stroke"  transform=" translate(0, 0)" d="M -314.00833 49.02215 L -314.00833 -62.277849999999994 L -357.05833 -62.277849999999994 L -357.05833 -73.47784999999999 L -258.00833 -73.47784999999999 L -258.00833 -62.27784999999999 L -301.05833 -62.27784999999999 L -301.05833 49.02215000000001 z M -230.53333 -25.00285 L -217.49533 -39.002849999999995 C -215.89233 -39.877269999999996 -214.18367999999998 -40.63032 -212.36938 -41.26199999999999 C -207.64785 -42.905899999999995 -202.21083000000002 -43.72785 -196.05833 -43.72785 L -196.05833 -43.72785 L -196.05833 -31.652849999999997 L -199.03333 -31.827849999999998 C -208.71666000000002 -31.827849999999998 -216.3 -28.852849999999997 -221.78333 -22.902849999999997 C -223.54216 -20.994329999999998 -225.01891 -18.839749999999995 -226.21358 -16.439089999999997 C -228.74342000000001 -11.355449999999998 -230.00833 -5.168369999999996 -230.00833 2.122150000000005 L -230.00833 2.122150000000005 L -230.00833 49.02215 L -242.43333 49.02215 L -242.43333 -43.027849999999994 L -230.53333 -43.027849999999994 z M -104.53333 -43.02785 L -92.28333 -43.02785 L -138.30833 60.04715 C -142.04166 68.68048 -146.35833000000002 74.80548 -151.25833 78.42215 C -156.15833 82.03882 -162.05 83.84715 -168.93333 83.84715 L -168.93333 83.84715 C -173.36666000000002 83.84715 -177.50833 83.14715 -181.35833000000002 81.74715 C -185.20833000000002 80.34715 -188.53333000000003 78.24715 -191.33333000000002 75.44715000000001 L -191.33333000000002 75.44715000000001 L -185.55833 66.17215 C -180.89166 70.83882 -175.29166 73.17215 -168.75833 73.17215 L -168.75833 73.17215 C -164.55833 73.17215 -160.97066 72.00548 -157.99533 69.67215 C -155.02066 67.33882 -152.25 63.372150000000005 -149.68332999999998 57.77215 L -149.68332999999998 57.77215 L -145.65832999999998 48.84715 L -186.78332999999998 -43.02785 L -173.83333 -43.02785 L -139.18332999999998 35.19714999999999 z M 25.66667 49.02215 L -4.258330000000001 48.235150000000004 L -21.63654 10.172150000000002 C -21.36774 10.172150000000002 -22.925 10.172150000000002 -26.308329999999998 10.172150000000002 L -26.308329999999998 10.172150000000002 L -52.798069999999996 10.172150000000002 L -59.20833 60.04715 L -79.20961 60.04715 L -72.15832999999999 -80.18854 C -72.15832999999999 -80.18854 -43.79603999999999 -86.26878 -21.63653999999999 -82.75264 C -5.092399999999991 -80.4156 7.61300000000001 -75.51375 16.479670000000013 -68.04708 C 25.595790000000015 -60.934259999999995 30.153850000000013 -50.844519999999996 30.153850000000013 -37.777849999999994 L 25.66667000000001 -21.152849999999994 C 24.38334000000001 -18.469519999999992 21.321000000000012 -13.831849999999994 16.479670000000013 -7.2398499999999935 C 11.637670000000014 -0.6485199999999933 4.725000000000012 4.105480000000007 -4.258329999999987 7.022150000000007 L -4.258329999999987 7.022150000000007 z M -26.30833 -4.05797 C -16.11773 -4.05165 -7.8141 -6.73183 -1.39743 -12.098490000000002 C 6.72864 -15.33472 10.79167 -21.7945 10.79167 -31.47784 L 10.79167 -31.47784 C 10.79167 -41.39451 7.58334 -49.00684 1.1666699999999999 -54.314840000000004 C -5.25 -59.62351 -14.525 -62.277840000000005 -26.65833 -62.277840000000005 L -26.65833 -62.277840000000005 L -52.798069999999996 -62.277840000000005 L -56.00319999999999 -7.239840000000008 z M 89.36667 49.89715 C 80.5 49.89715 72.50834 47.884820000000005 65.39167 43.860150000000004 C 58.275000000000006 39.83482000000001 52.675000000000004 34.26382 48.59167000000001 27.147150000000003 C 44.508340000000004 20.030480000000004 42.46667000000001 11.980480000000004 42.46667000000001 2.997150000000005 L 42.46667000000001 2.997150000000005 C 42.46667000000001 -5.986179999999996 44.508340000000004 -14.036179999999995 48.59167000000001 -21.152849999999994 C 52.67500000000001 -30.592279999999995 58.275000000000006 -37.29532999999999 65.39167 -41.26199999999999 C 72.50834 -46.20112999999999 80.5 -48.67068999999999 89.36667 -48.67068999999999 L 89.36667 -48.67068999999999 C 102.93804 -47.698229999999995 113.28205 -45.22865999999999 120.39872 -41.26199999999999 C 126.22949 -36.13922999999999 131.15753999999998 -30.019519999999993 135.18287 -22.902849999999994 C 139.63489 -14.619519999999994 141.86090000000002 -5.986179999999994 141.86090000000002 2.997150000000005 L 141.86090000000002 2.997150000000005 C 141.43355000000003 15.130480000000006 139.20754000000002 24.755480000000006 135.18287 31.872150000000005 C 129.87933 38.05548 123.66923000000001 43.15982 116.55256 47.18515000000001 C 107.2953 48.99315000000001 98.23333 49.89715000000001 89.36666 49.89715000000001 z M 89.36667 37.99715 C 89.36667 37.99715 95.19169 37.64765 101.18544 34.93515 C 107.17919 32.22265 108.53835 32.8129 113.34167 27.14715 C 118.04637 20.73048 120.39872 14.02215 120.39872 7.02215 C 120.39872 7.02215 121.36026 11.90015 120.39872 7.02215 C 119.43718 2.14415 119.91358 -3.2236700000000003 116.55257 -12.017420000000001 C 113.19156000000001 -20.81117 113.75115000000001 -17.6091 106.95467000000001 -22.90285 C 101.76267000000001 -26.57752 95.9 -28.41485 89.36667 -28.41485 L 89.36667 -28.41485 C 82.83333999999999 -29.11552 76.971 -27.978180000000002 71.77967 -25.002850000000002 C 66.58767 -24.302850000000003 62.50434 -21.211180000000002 59.529669999999996 -15.727850000000002 C 56.554339999999996 -10.244520000000001 55.066669999999995 -4.002850000000002 55.066669999999995 2.9971499999999995 L 55.066669999999995 2.9971499999999995 C 55.066669999999995 9.99715 56.554339999999996 16.238819999999997 59.529669999999996 21.72215 C 62.50434 27.205479999999998 66.58767 31.43482 71.77967 34.41015 z M 199.09167 49.89715 C 190.225 49.89715 182.23334 47.884820000000005 175.11667 43.860150000000004 C 168 39.83482000000001 162.4 34.26382 158.31667 27.147150000000003 C 154.23334 20.030480000000004 152.19167 11.980480000000004 152.19167 2.997150000000005 L 152.19167 2.997150000000005 C 152.19167 -1.5502599999999953 152.71483999999998 -5.858519999999995 153.76117 -9.927609999999994 C 154.78185 -13.896929999999994 156.30034999999998 -17.638679999999994 158.31667 -21.152849999999994 C 162.39999999999998 -28.269519999999993 168 -33.81117999999999 175.11667 -37.777849999999994 C 182.23334 -41.744519999999994 190.225 -43.72785 199.09167 -43.72785 L 199.09167 -43.72785 C 207.95834 -43.72785 215.95 -41.744519999999994 223.06667 -37.777849999999994 C 230.18334 -33.81117999999999 235.75433999999998 -28.269519999999993 239.77966999999998 -21.152849999999994 C 243.80433999999997 -14.036179999999995 245.81667 -5.986179999999994 245.81667 2.997150000000005 L 245.81667 2.997150000000005 C 245.81667 11.980480000000005 243.80434 20.030480000000004 239.77966999999998 27.147150000000003 C 235.75433999999998 34.26382 230.18334 39.83482000000001 223.06667 43.860150000000004 C 215.95 47.884820000000005 207.95834 49.89715 199.09167 49.89715 z M 199.09167 35.19715 C 205.625 35.95515 211.48766999999998 34.84682 216.67967 31.87215 C 221.87099999999998 30.588820000000002 225.92499999999998 27.20548 228.84167 21.72215 C 231.75834 16.23882 233.21667 9.99715 233.21667 2.9971499999999978 L 233.21667 2.9971499999999978 C 233.21667 -4.002850000000002 231.75834 -10.244520000000001 228.84167 -15.727850000000004 C 225.92499999999998 -18.936520000000005 221.87099999999998 -22.028180000000003 216.67967 -25.002850000000002 C 211.48766999999998 -27.277520000000003 205.625 -28.41485 199.09167 -28.41485 L 199.09167 -28.41485 C 194.69509 -29.11552 189.90113 -27.978180000000002 184.7098 -25.002850000000002 C 181.28905 -21.883280000000003 178.09134 -17.581840000000003 175.11667 -12.098500000000001 C 172.93419 -9.034730000000001 171.84295 -4.002850000000002 171.84295 2.9971499999999978 L 171.84295 2.9971499999999978 C 171.05010000000001 10.463819999999998 172.14133 16.93882 175.11667 22.42215 C 176.32009 25.74682 179.5178 28.896819999999998 184.7098 31.872149999999998 C 187.76438 34.08882 192.55834 35.19715 199.09167 35.19715 z M 315.29167 27.14715 L 326.07693 35.19715 C 319.47009 42.78048 314.44601 47.12648 311.00467000000003 48.235150000000004 C 307.56267 49.34315 303.975 49.89715 300.24167000000006 49.89715 L 300.24167000000006 49.89715 C 291.60834000000006 49.89715 284.9583400000001 47.56382000000001 280.29167000000007 42.89715 C 275.62500000000006 38.23048 273.29167000000007 31.638820000000003 273.29167000000007 23.122150000000005 L 273.29167000000007 23.122150000000005 L 273.29167000000007 -28.414849999999994 L 256.8416700000001 -28.414849999999994 L 256.8416700000001 -39.002849999999995 L 273.29167000000007 -41.26199999999999 L 273.29167000000007 -63.152849999999994 L 289.8296700000001 -68.04708 L 289.8296700000001 -43.72784999999999 L 315.29167000000007 -50.499999999999986 L 311.0046700000001 -32.52784999999999 L 289.8296700000001 -31.477849999999986 L 285.7166700000001 22.422150000000013 C 285.7166700000001 25.863480000000013 287.08767000000006 29.013480000000012 289.8296700000001 31.872150000000012 C 291.63767000000007 35.95548000000001 295.10834000000006 37.99715000000001 300.24167000000006 37.99715000000001 L 309.0796700000001 35.197150000000015 C 306.6876700000001 36.01382000000002 306.6876700000001 36.01382000000002 309.0796700000001 35.197150000000015 C 311.47100000000006 31.347150000000013 313.54167000000007 28.663820000000015 315.29167000000007 27.147150000000014 z M 341.10467 17.76564 L 338.39167 -73.47784 L 356.76667 -82.75263 L 354.14167 22.422160000000005 z M 347.66667 49.89715 L 341.10467 47.18515 C 339.296 45.37648 338.39167 43.24715 338.39167 40.79715 L 338.39167 40.79715 L 341.01667 34.41015 C 342.76667 32.71815 344.98334 31.87215 347.66666999999995 31.87215 C 347.66666999999995 31.87215 346.04792 31.237650000000002 347.66666999999995 31.87215 C 349.28541999999993 32.50665 354.14167 34.41015 354.14167 34.41015 C 355.89167 36.10148 356.76667 38.23048 356.76667 40.79715 C 356.76667 40.79715 357.42292 39.20015 356.76667 40.79715 C 356.11042 42.39415 354.14167 47.18515 354.14167 47.18515 C 354.14167 47.18515 349.28542 49.21915 347.66666999999995 49.89715 C 346.04792 50.57515 347.66666999999995 49.89715 347.66666999999995 49.89715 z" stroke-linecap="round" />
</g>
		<g transform="matrix(1 0 0 1 -305.79 -12.15)" id="D7CWQTDKNaT6sSQCp2Eri"  >
<path style="stroke: rgb(255,255,255); stroke-width: 8; stroke-dasharray: none; stroke-linecap: butt; stroke-dashoffset: 0; stroke-linejoin: miter; stroke-miterlimit: 4; fill: rgb(255,255,255); fill-rule: nonzero; opacity: 1;" vector-effect="non-scaling-stroke"  transform=" translate(0, 0)" d="M -51.10571 -60.35616 L 51.1057 -62.56685 L 51.1057 -48.128350000000005 L 6.18591 -48.128350000000005 L 9.39447 62.56683999999999 L -6.64831 62.56683999999999 L -6.64831 -48.128350000000005 L -51.10571 -48.128350000000005 z" stroke-linecap="round" />
</g>
		<g transform="matrix(1 0 0 1 -216.66 -0.57)" id="QuzpIr8L71nXnG1ByZcLY"  >
<path style="stroke: rgb(0,0,0); stroke-width: 0; stroke-dasharray: none; stroke-linecap: butt; stroke-dashoffset: 0; stroke-linejoin: miter; stroke-miterlimit: 4; fill: rgb(255,255,255); fill-rule: nonzero; opacity: 1;" vector-effect="non-scaling-stroke"  transform=" translate(0, 0)" d="M -23.26203 -43.04813 L -23.26203 50 L -6.149729999999998 50 L -9.893049999999999 -13.636360000000003 L -3.4038199999999987 -23.675950000000004 L 5.748110000000001 -30.919180000000004 L 23.26204 -30.919180000000004 C 23.26204 -30.919180000000004 23.26204 -40.64171 23.26204 -43.04813 C 23.26204 -45.45455 23.26204 -47.3262 23.26204 -47.3262 C 23.26204 -47.3262 15.640509999999999 -49.73262 8.974039999999999 -47.3262 C 2.307579999999999 -44.91978 1.4466399999999986 -43.04813 -3.4038200000000014 -37.70053 C -8.254280000000001 -32.352940000000004 -9.893050000000002 -30.91918 -9.893050000000002 -30.91918 L -9.893050000000002 -50 z" stroke-linecap="round" />
</g>
		<g transform="matrix(1.02 0 0 1.02 -138.66 18.79)" id="qFcvXx0ps7x1wCyF_qSP6"  >
<path style="stroke: rgb(0,0,0); stroke-width: 0; stroke-dasharray: none; stroke-linecap: butt; stroke-dashoffset: 0; stroke-linejoin: miter; stroke-miterlimit: 4; fill: rgb(255,255,255); fill-rule: nonzero; opacity: 1;" vector-effect="non-scaling-stroke"  transform=" translate(0, 0)" d="M -45.9893 -61.76471 L -28.877 -61.76471 L 1.6042800000000028 16.310160000000003 L 36.363640000000004 -61.76471 L 51.3369 -64.97327 L -5.347589999999997 54.812830000000005 C -5.347589999999997 54.812830000000005 -9.625659999999996 61.229940000000006 -18.18181 63.36898000000001 C -26.73796 65.50802 -31.283409999999996 65.50802 -39.57218 63.36898000000001 C -47.86095 61.229940000000006 -51.336890000000004 54.812830000000005 -51.336890000000004 54.812830000000005 L -45.9893 37.70053 L -39.57219 44.11764 C -39.57219 44.11764 -29.812829999999998 52.005340000000004 -24.59893 51.06951 C -19.38503 50.13368 -19.25134 49.26737 -14.4385 44.11764 C -9.62567 38.96791 -9.09091 32.07486 -9.09091 32.07486 z" stroke-linecap="round" />
</g>
</g>
</g>
</svg>